<svg xmlns="http://www.w3.org/2000/svg" xmlns:xlink="http://www.w3.org/1999/xlink" fill="none" version="1.1" width="48" height="48" viewBox="0 0 48 48"><defs><clipPath id="master_svg0_206_49402"><rect x="10" y="10" width="28" height="28" rx="0"/></clipPath></defs><g><rect x="0" y="0" width="48" height="48" rx="24" fill="#FFFFFF" fill-opacity="1"/><rect x="0.5" y="0.5" width="47" height="47" rx="23.5" fill-opacity="0" stroke-opacity="1" stroke="#E5E5E5" fill="none" stroke-width="1"/><g clip-path="url(#master_svg0_206_49402)"><g><path d="M34.5,19.33305921875C34.4991,18.500289218749998,34.054500000000004,17.73110921875,33.3333,17.31471921875L25.1667,12.64805721875C24.444699999999997,12.23124721875,23.555300000000003,12.23124721875,22.83333,12.64805721875L14.66667,17.31471921875C13.94547,17.73110921875,13.500853936,18.500289218749998,13.5,19.33305921875L13.5,28.66634921875C13.500854492,29.49914921875,13.945471,30.26834921875,14.66667,30.68474921875L22.83333,35.35134921875C23.555300000000003,35.76824921875,24.444699999999997,35.76824921875,25.1667,35.35134921875L33.3333,30.68474921875C34.054500000000004,30.26834921875,34.4991,29.49914921875,34.5,28.66634921875L34.5,19.33305921875Z" fill="#EFF2F8" fill-opacity="1"/></g><g><path d="M24,30.125C23.9991,29.2922,24.7212,25.29138,24,24.875L23.5625,23.5625C22.84056,23.145690000000002,17.4375,20.0625,16.5625,19.3333L14.375,18.312604308C13.653804,18.728987,13.500853936,18.500449,13.5,19.33321L13.5,28.6665C13.500854492,29.499299999999998,13.945471,30.2685,14.66667,30.6849L22.83333,35.3515C23.555300000000003,35.7684,23.27806,35.768299999999996,24,35.3515L24,34.0625C24,33.1875,23.9991,32.7078,24,31.875L24,30.125Z" fill="#FFFFFF" fill-opacity="1"/></g><g><path d="M33.5814,31.11884921875Q34.9983,30.30074921875,35,28.66694921875L35,19.33305921875Q34.9983,17.69864921875,33.5833,16.88170921875L25.4147,12.21393521875Q24,11.39713021875,22.58334,12.21504421875L14.418597,16.88059921875Q13.001676,17.69865921875,13,19.33254921875L13,28.66634921875Q13.001677,30.30074921875,14.416666,31.11774921875L22.58527,35.78554921875Q24,36.60234921875,25.4167,35.78444921875L33.5814,31.11884921875ZM34,28.66584921875L34,28.66634921875Q33.9987,29.72324921875,33.085300000000004,30.25064921875L24.9167,34.918349218749995Q24,35.44764921875,23.081400000000002,34.91724921875L14.91667,30.25174921875Q14.001085,29.72304921875,14,28.66634921875L14,19.33356921875Q14.001084,18.27634921875,14.91474,17.74884921875L23.08334,13.08106921875Q24,12.55183121875,24.918599999999998,13.08217821875L33.0833,17.74773921875Q33.9989,18.27634921875,34,19.33305921875L34,28.66584921875Z" fill-rule="evenodd" fill="#E2E5EB" fill-opacity="1"/></g><g><path d="M14.09939765625,17.73308790625L24.00009765625,23.42314390625L33.90099765625,17.73299690625Q34.01669765625,17.66650390625,34.15009765625,17.66650390625Q34.199297656249996,17.66650390625,34.24759765625,17.67611090625Q34.29589765625,17.68571890625,34.341397656249995,17.70456390625Q34.38689765625,17.72340990625,34.427897656249996,17.75076890625Q34.468797656250004,17.77812890625,34.50369765625,17.81295090625Q34.53849765625,17.84777290625,34.56579765625,17.88871890625Q34.59319765625,17.92966490625,34.61199765625,17.97516190625Q34.63089765625,18.02065890625,34.640497656250005,18.06895880625Q34.65009765625,18.11725820625,34.65009765625,18.16650390625Q34.65009765625,18.23245610625,34.63299765625,18.29615290625Q34.61589765625,18.35984890625,34.58289765625,18.41693290625Q34.54979765625,18.47401590625,34.50309765625,18.52058190625Q34.456397656250005,18.56714790625,34.399197656249996,18.60001090625L34.39899765625,18.60016890625L24.24919765625,24.433343906250002Q24.19239765625,24.466013906249998,24.12899765625,24.48292390625Q24.065697656250002,24.49983390625,24.00009765625,24.49983390625Q23.934497656250002,24.49983390625,23.87119765625,24.48292390625Q23.80780765625,24.466013906249998,23.75095765625,24.433343906250002L13.60111465625,18.60010190625L13.60095565625,18.60001090625Q13.54377465625,18.56714790625,13.49706965625,18.52058190625Q13.45036565625,18.47401590625,13.41733265625,18.41693290625Q13.38429965625,18.35984890625,13.36719865625,18.29615290625Q13.35009765625,18.23245610625,13.35009765625,18.16650390625Q13.35009765625,18.11725820625,13.35970465625,18.06895880625Q13.369312656249999,18.02065890625,13.38815765625,17.97516190625Q13.40700365625,17.92966490625,13.43436265625,17.88871890625Q13.46172265625,17.84777290625,13.49654465625,17.81295090625Q13.53136665625,17.77812890625,13.57231265625,17.75076890625Q13.61325865625,17.72340990625,13.65875565625,17.70456390625Q13.70425265625,17.68571890625,13.75255255625,17.67611090625Q13.80085195625,17.66650390625,13.85009765625,17.66650390625Q13.98354165625,17.66650390625,14.09923965625,17.73299690625L14.09939765625,17.73308790625Z" fill-rule="evenodd" fill="#E2E5EB" fill-opacity="1"/></g><g><path d="M23.5,24Q23.5,23.9507543,23.509607,23.9024549Q23.519215,23.854155,23.53806,23.808658Q23.556906,23.763161,23.584265,23.722215Q23.611625,23.681269,23.646447,23.646447Q23.681269,23.611625,23.722215,23.584265Q23.763161,23.556906,23.808658,23.53806Q23.854155,23.519215,23.9024549,23.509607Q23.9507543,23.5,24,23.5Q24.0492457,23.5,24.0975451,23.509607Q24.145845,23.519215,24.191342,23.53806Q24.236839,23.556906,24.277785,23.584265Q24.318731,23.611625,24.353553,23.646447Q24.388375,23.681269,24.415735,23.722215Q24.443094,23.763161,24.46194,23.808658Q24.480785,23.854155,24.490393,23.9024549Q24.5,23.9507543,24.5,24L24.5,35.6667Q24.5,35.7159,24.490393,35.7642Q24.480785,35.8125,24.46194,35.858000000000004Q24.443094,35.9035,24.415735,35.9445Q24.388375,35.9854,24.353553,36.0202Q24.318731,36.055,24.277785,36.0824Q24.236839,36.1098,24.191342,36.1286Q24.145845,36.1475,24.0975451,36.1571Q24.0492457,36.1667,24,36.1667Q23.9507543,36.1667,23.9024549,36.1571Q23.854155,36.1475,23.808658,36.1286Q23.763161,36.1098,23.722215,36.0824Q23.681269,36.055,23.646447,36.0202Q23.611625,35.9854,23.584265,35.9445Q23.556906,35.9035,23.53806,35.858000000000004Q23.519215,35.8125,23.509607,35.7642Q23.5,35.7159,23.5,35.6667L23.5,24Z" fill-rule="evenodd" fill="#E2E5EB" fill-opacity="1"/></g></g></g></svg>