<svg xmlns="http://www.w3.org/2000/svg" xmlns:xlink="http://www.w3.org/1999/xlink" fill="none" version="1.1" width="26" height="26" viewBox="0 0 26 26"><defs><linearGradient x1="0.07814378291368484" y1="0.03612342104315758" x2="0.5" y2="0.9999999999999999" id="master_svg0_2_09615"><stop offset="13.571429252624512%" stop-color="#000000" stop-opacity="1"/><stop offset="94.9999988079071%" stop-color="#444444" stop-opacity="1"/></linearGradient></defs><g><g></g><g><rect x="0" y="0" width="26" height="26" rx="8" fill="url(#master_svg0_2_09615)" fill-opacity="1"/></g><g><g><path d="M6.0137675097212195,7L6.0137675097212195,10.88001C6.0137675097212195,11.4093,6.102606009721219,11.9216,6.2628585097212195,12.39682L6.2628585097212195,12.39682C6.31390450972122,12.54205,6.36838550972122,12.68,6.429737509721219,12.818200000000001L6.429737509721219,12.818200000000001C6.77453950972122,13.573450000000001,7.3102675097212195,14.227360000000001,7.979007509721219,14.71614L7.979007509721219,14.71614C8.098527509721219,14.80367,8.22466750972122,14.88465,8.354247509721219,14.962240000000001L8.354247509721219,14.962240000000001C9.08114750972122,15.39381,9.93051750972122,15.64329,10.83484750972122,15.64329L10.83484750972122,15.64329L12.61922750972122,15.64329C12.82733750972122,15.64329,13.028817509721218,15.62293,13.223427509721219,15.58244L13.223427509721219,15.58244C12.97752750972122,14.50036,12.001777509721219,13.69129,10.83484750972122,13.68474L10.83484750972122,13.68474L10.82110750972122,13.68474C10.31261750972122,13.681339999999999,9.83504750972122,13.546299999999999,9.42226750972122,13.313780000000001L9.42226750972122,13.313780000000001C8.750087509721219,12.93288,8.24846750972122,12.28238,8.067847509721219,11.51695L8.067847509721219,11.51695C8.03692750972122,11.39572,8.01655750972122,11.27449,8.00649750972122,11.14623L8.00649750972122,11.14623C7.995947509721219,11.0587,7.992757509721219,10.97118,7.992757509721219,10.88001L7.992757509721219,10.88001L7.992757509721219,7L6.0137675097212195,7Z" fill-rule="evenodd" fill="#FFFFFF" fill-opacity="1"/></g><g><path d="M7.97899,15.16107472732544L7.97899,20.00000472732544L6,20.00000472732544L6,14.358784727325439L6,12.63129472732544C6.0630704,12.86744672732544,6.167861,13.13269272732544,6.221851,13.23622072732544C6.627759,14.016684727325439,7.23858,14.679074727325439,7.97899,15.16107472732544L7.97899,15.16107472732544Z" fill-rule="evenodd" fill="#FFFFFF" fill-opacity="1"/></g><g><path d="M9.036729974273682,11.358622074127197C8.82837697427368,11.358622074127197,8.627385974273682,11.378988374127196,8.432775974273682,11.419235974127197L8.432775974273682,11.419235974127197C8.678431974273682,12.498162074127197,9.657615974273682,13.306992074127198,10.821105974273681,13.313782074127197L10.821105974273681,13.313782074127197L10.834845974273682,13.313782074127197C11.343095974273682,13.317182074127198,11.820905974273682,13.452222074127198,12.237125974273681,13.684742074127197L12.237125974273681,13.684742074127197C12.909305974273682,14.069032074127197,13.407235974273682,14.716142074127198,13.588105974273681,15.484732074127198L13.588105974273681,15.484732074127198C13.619025974273683,15.602562074127198,13.639395974273683,15.727422074127198,13.649945974273681,15.852292074127197L13.649945974273681,15.852292074127197C13.660015974273682,15.939822074127196,13.663205974273682,16.030742074127197,13.663205974273682,16.121662074127197L13.663205974273682,16.121662074127197L13.663205974273682,19.999972074127196L15.642195974273681,19.999972074127196L15.642195974273681,16.121662074127197C15.642195974273681,15.592622074127197,15.553595974273682,15.080072074127198,15.389905974273681,14.601462074127198L15.389905974273681,14.601462074127198C15.34205597427368,14.460112074127197,15.287325974273681,14.318522074127198,15.222535974273683,14.183472074127197L15.222535974273683,14.183472074127197C14.881415974273683,13.425072074127197,14.345685974273682,12.774562074127196,13.676945974273682,12.285772074127197L13.676945974273682,12.285772074127197C13.557435974273682,12.198003074127197,13.431285974273681,12.113871074127196,13.301715974273682,12.039679074127196L13.301715974273682,12.039679074127196C12.574805974273682,11.608351074127198,11.725445974273683,11.358622074127197,10.821105974273681,11.358622074127197L10.821105974273681,11.358622074127197L9.036729974273682,11.358622074127197Z" fill-rule="evenodd" fill="#FFFFFF" fill-opacity="1"/></g><g><path d="M18.82025660583496,7.866293270050049C18.57144360583496,8.108021270050049,18.44728660583496,8.394118270050049,18.44728660583496,8.725317270050049C18.44728660583496,9.073477270050049,18.57144360583496,9.368057270050048,18.82025660583496,9.609547270050049C19.06856960583496,9.85103727005005,19.36984260583496,9.97153727005005,19.72257660583496,9.97153727005005C20.07531660583496,9.97153727005005,20.37308660583496,9.85103727005005,20.61590660583496,9.609547270050049C20.86496660583496,9.368057270050048,20.98912660583496,9.076147270050049,20.98912660583496,8.733797270050049C20.98912660583496,8.391451270050048,20.86496660583496,8.102444270050048,20.61590660583496,7.866293270050049C20.36734660583496,7.625050270050049,20.06656660583496,7.504307270050049,19.71383660583496,7.504307270050049C19.36684560583496,7.504307270050049,19.06856960583496,7.625050270050049,18.82025660583496,7.866293270050049ZM20.76046660583496,20.000007270050048L18.67653460583496,20.000007270050048L18.67653460583496,11.798737270050049L20.76046660583496,11.798737270050049L20.76046660583496,20.000007270050048Z" fill-rule="evenodd" fill="#FFFFFF" fill-opacity="1"/></g><g><path d="M13.663300514221191,11.839174140625001L13.663300514221191,7.000244140625L15.642290514221191,7.000244140625L15.642290514221191,12.641454140625001L15.642290514221191,14.368954140625C15.579220514221191,14.132794140625,15.474430514221192,13.867554140625,15.420440514221191,13.764024140625C15.01453051422119,12.983554140625,14.403702514221191,12.321174140625,13.663300514221191,11.839174140625001L13.663300514221191,11.839174140625001Z" fill-rule="evenodd" fill="#FFFFFF" fill-opacity="1"/></g></g></g></svg>