<svg xmlns="http://www.w3.org/2000/svg" xmlns:xlink="http://www.w3.org/1999/xlink" fill="none" version="1.1" width="48" height="48" viewBox="0 0 48 48"><defs><clipPath id="master_svg0_206_49397"><rect x="12" y="12" width="24" height="24" rx="0"/></clipPath></defs><g><rect x="0" y="0" width="48" height="48" rx="24" fill="#FFFFFF" fill-opacity="1"/><rect x="0.5" y="0.5" width="47" height="47" rx="23.5" fill-opacity="0" stroke-opacity="1" stroke="#E5E5E5" fill="none" stroke-width="1"/><g clip-path="url(#master_svg0_206_49397)"><g><path d="M35.748000000000005,16.48224828125C35.494,16.35824828125,35.384,16.59524828125,35.236000000000004,16.71624828125C35.185,16.75524828125,35.141999999999996,16.80624828125,35.099000000000004,16.85224828125C34.727000000000004,17.24924828125,34.293,17.50924828125,33.726,17.47824828125C32.897,17.43224828125,32.189,17.69224828125,31.563,18.32624828125C31.43,17.54424828125,30.988,17.07824828125,30.316,16.77824828125C29.964,16.622248281250002,29.608,16.46724828125,29.361,16.12824828125C29.189,15.88724428125,29.142,15.61824428125,29.056,15.35424428125C29.001,15.19424428125,28.946,15.03124428125,28.763,15.00424433125C28.563,14.97324438125,28.485,15.14024428125,28.407,15.28024428125C28.094,15.85224428125,27.973,16.48224828125,27.985,17.12024828125C28.012,18.55624828125,28.618,19.70024828125,29.823,20.51324828125C29.96,20.60624828125,29.995,20.70024828125,29.952,20.83624828125C29.87,21.11624828125,29.772,21.38824828125,29.686,21.66924828125C29.631,21.84824828125,29.549,21.88624828125,29.357,21.80924828125C28.7082,21.53043828125,28.1189,21.12987828125,27.621000000000002,20.62924828125C26.764,19.80124828125,25.990000000000002,18.88724828125,25.024,18.17124828125C24.8001,18.00585828125,24.5703,17.84875828125,24.335,17.70024828125C23.35,16.74324828125,24.465,15.95724428125,24.7229,15.86424428125C24.993000000000002,15.76624428125,24.816000000000003,15.43224428125,23.9439,15.43624428125C23.072,15.44024428125,22.273899999999998,15.73124428125,21.25695,16.12024828125C21.10582,16.17815828125,20.95033,16.22396828125,20.79195,16.25724828125C19.84158,16.07817828125,18.8696,16.04378828125,17.90895,16.15524828125C16.02395,16.36524828125,14.51895,17.25724828125,13.411950000000001,18.77824828125C12.0819496,20.60624828125,11.76895,22.68424828125,12.15195,24.85024828125C12.55495,27.13428828125,13.72095,29.02528828125,15.51195,30.50328828125C17.36995,32.036288281249995,19.50895,32.78728828125,21.94995,32.64328828125C23.432000000000002,32.55828828125,25.083,32.35928828125,26.944000000000003,30.78328828125C27.414,31.01728828125,27.906,31.11028828125,28.724,31.18028828125C29.354,31.23928828125,29.96,31.15028828125,30.429,31.05228828125C31.164,30.89628828125,31.113,30.21528828125,30.848,30.09128828125C28.693,29.08728828125,29.166,29.49628828125,28.735,29.16528828125C29.831,27.86928828125,31.481,26.52328828125,32.126999999999995,22.162238281249998C32.177,21.81523828125,32.134,21.59723828125,32.126999999999995,21.31723828125C32.123000000000005,21.14723828125,32.162,21.08023828125,32.357,21.06123828125C32.897999999999996,21.00511828125,33.422799999999995,20.84375828125,33.902,20.58623828125C35.298,19.82323828125,35.8619,18.57123828125,35.995000000000005,17.06923828125C36.015,16.83923828125,35.991,16.60223828125,35.748000000000005,16.48123828125L35.748000000000005,16.48224828125ZM23.581,30.00028828125C21.49195,28.358288281249997,20.478949999999998,27.81728828125,20.06095,27.84028828125C19.66895,27.864288281249998,19.73995,28.31128828125,19.82595,28.603288281250002C19.91595,28.89128828125,20.03295,29.08928828125,20.19695,29.34228828125C20.31095,29.50928828125,20.38895,29.75828828125,20.08395,29.94528828125C19.41095,30.361288281249998,18.24195,29.80528828125,18.18695,29.77828828125C16.82595,28.97628828125,15.68695,27.91828828125,14.88595,26.47128828125C14.11195,25.07828828125,13.661950000000001,23.584248281249998,13.58795,21.98924828125C13.56795,21.60324828125,13.68095,21.46724828125,14.06495,21.39724828125C14.56906,21.30077828125,15.08558,21.28759828125,15.59395,21.35824828125C17.72595,21.67024828125,19.53995,22.62324828125,21.06195,24.13224828125C21.929949999999998,24.99224828125,22.587,26.01928828125,23.264,27.02328828125C23.984,28.08928828125,24.7579,29.105288281249997,25.7439,29.937288281249998C26.091900000000003,30.22928828125,26.3689,30.45128828125,26.634999999999998,30.614288281249998C25.832900000000002,30.70428828125,24.4949,30.72428828125,23.581,30.00028828125ZM24.581,23.56024828125C24.580199999999998,23.34542828125,24.7952,23.19672828125,24.996000000000002,23.273248281249998C25.1172,23.31674828125,25.197499999999998,23.432408281249998,25.195999999999998,23.561248281250002C25.1965,23.73220828125,25.0569,23.87047828125,24.886,23.86824828125C24.7162,23.86882828125,24.5791,23.72992828125,24.581,23.56024828125L24.581,23.56024828125ZM27.691000000000003,25.15628828125C27.4909,25.237288281250002,27.292,25.307288281250003,27.101,25.31628828125C26.8136,25.32628828125,26.531599999999997,25.23648828125,26.303,25.062288281249998C26.0289,24.83224828125,25.832900000000002,24.704248281250003,25.7509,24.30423828125C25.7227,24.10876828125,25.728099999999998,23.909888281249998,25.767,23.71623828125C25.837,23.38923828125,25.7589,23.17923828125,25.527900000000002,22.98923828125C25.340899999999998,22.83323828125,25.1019,22.790238281249998,24.8399,22.790238281249998C24.7502,22.78503828125,24.6631,22.75827828125,24.586,22.712238281250002C24.476,22.65823828125,24.386,22.52223828125,24.471899999999998,22.354238281249998C24.4999,22.30023828125,24.6319,22.168238281249998,24.664,22.14423828125C25.0199,21.94223828125,25.430999999999997,22.00823828125,25.8099,22.16023828125C26.162,22.30423828125,26.428,22.56823828125,26.8109,22.94223828125C27.201999999999998,23.39323828125,27.273,23.51823828125,27.496000000000002,23.85623828125C27.6719,24.12123828125,27.832,24.39323828125,27.941000000000003,24.70423828125C28.008,24.89923828125,27.9219,25.05828828125,27.691000000000003,25.15628828125Z" fill="#4D6BFE" fill-opacity="1" style="mix-blend-mode:passthrough"/></g></g></g></svg>