<svg xmlns="http://www.w3.org/2000/svg" xmlns:xlink="http://www.w3.org/1999/xlink" fill="none" version="1.1" width="200" height="124.623046875" viewBox="0 0 200 124.623046875"><defs><mask id="master_svg0_206_72317" style="mask-type:alpha" maskUnits="objectBoundingBox"><g><path d="M133.6716143798828,32.402010917663574L170.62501437988283,32.402010917663574L156.63581437988282,56.70351091766358L119.70161437988281,56.70351091766358L133.6716143798828,32.402010917663574Z" fill-rule="evenodd" fill="#FFFFFF" fill-opacity="1"/></g></mask><mask id="master_svg1_206_72325" style="mask-type:alpha" maskUnits="objectBoundingBox"><g><path d="M56.875,56.70351696014404L119.6615,56.70351696014404L105.55539999999999,81.00501696014405L43.125,81.00501696014405L56.875,56.70351696014404Z" fill-rule="evenodd" fill="#FFFFFF" fill-opacity="1"/></g></mask></defs><g><g transform="matrix(-1,0,0,1,400,0)"><g transform="matrix(0,-1,1,0,231.31439208984375,480.56060791015625)"><path d="M480.5605,125.93560791015625L355.9375000000035,125.93560791015625L355.9375000000035,123.93560791015625L480.5605,123.93560791015625L480.5605,125.93560791015625Z" fill-rule="evenodd" fill="#F7F7F7" fill-opacity="1"/></g><g><ellipse cx="356.25" cy="56.70351791381836" rx="12.5" ry="12.462310791015625" fill-opacity="0" stroke-opacity="1" stroke="#EBECEC" fill="none" stroke-width="1.944000005722046"/></g><g><ellipse cx="356.25" cy="81.62814331054688" rx="12.5" ry="12.462310791015625" fill-opacity="0" stroke-opacity="1" stroke="#EBECEC" fill="none" stroke-width="1.944000005722046"/></g><g><path d="M400,57.70352014404297L200,57.70352014404297L200,55.70351814404297L400,55.70351814404297L400,57.70352014404297Z" fill-rule="evenodd" fill="#F7F7F7" fill-opacity="1"/></g><g><path d="M400,82.62814935546875L200,82.62814935546875L200,80.62814735546876L400,80.62814735546876L400,82.62814935546875Z" fill-rule="evenodd" fill="#F7F7F7" fill-opacity="1"/></g><g><ellipse cx="356.2499997615814" cy="56.70351791381836" rx="3.749999761581421" ry="3.7386932373046875" fill="#FFFFFF" fill-opacity="1"/></g><g><ellipse cx="356.2499997615814" cy="81.62814331054688" rx="3.749999761581421" ry="3.7386932373046875" fill="#FFFFFF" fill-opacity="1"/></g></g><g><g><g><path d="M56.875,56.70351696014404L119.6776,56.70351696014404L119.6776,95.33671696014405L56.875,95.33671696014405L56.875,56.70351696014404Z" fill-rule="evenodd" fill="#EBECEC" fill-opacity="1"/></g><g><path d="M156.625,56.70351696014404L175.375,75.39701696014404L156.625,75.39701696014404L156.625,56.70351696014404Z" fill-rule="evenodd" fill="#EBECEC" fill-opacity="1"/></g><g><path d="M119.67758178710938,56.70351696014404L156.63588178710938,56.70351696014404L156.63588178710938,95.33671696014405L119.67758178710938,95.33671696014405L119.67758178710938,56.70351696014404Z" fill-rule="evenodd" fill="#F7F7F7" fill-opacity="1"/></g><g><rect x="131.24999237060547" y="64.80402278900146" width="18.125" height="3.7386932373046875" rx="0" fill="#CACCCD" fill-opacity="1"/></g><g><rect x="74.375" y="82.25125408172607" width="27.5" height="3.7386932373046875" rx="0" fill="#C4C5C7" fill-opacity="1"/></g><g><rect x="74.375" y="87.23617839813232" width="27.5" height="1.2462310791015625" rx="0" fill="#F7F7F7" fill-opacity="1"/></g><g mask="url(#master_svg0_206_72317)"><g><path d="M133.6716143798828,32.402010917663574L170.62501437988283,32.402010917663574L156.63581437988282,56.70351091766358L119.70161437988281,56.70351091766358L133.6716143798828,32.402010917663574Z" fill-rule="evenodd" fill="#EBECEC" fill-opacity="1"/></g></g><g mask="url(#master_svg1_206_72325)"><g><path d="M56.875,56.70351696014404L119.6615,56.70351696014404L105.55539999999999,81.00501696014405L43.125,81.00501696014405L56.875,56.70351696014404Z" fill-rule="evenodd" fill="#F7F7F7" fill-opacity="1"/><path d="M56.875,56.70351696014404L119.6615,56.70351696014404L105.55539999999999,81.00501696014405L43.125,81.00501696014405L56.875,56.70351696014404Z" fill-rule="evenodd" fill="#F7F7F7" fill-opacity="1"/></g></g></g><g><g transform="matrix(0.9400237202644348,0.34110909700393677,-0.3429330289363861,0.9393599033355713,10.32825457634354,-29.796559134772792)"><path d="M112.2446388092041,36.67834883270264Q121.4968388092041,27.447548832702637,121.4968388092041,14.392748832702637L119.5528388092041,14.392748832702637Q119.5528388092041,26.640948832702637,110.8716388092041,35.30214883270264Q102.1895388092041,43.96424883270264,89.9106413521841,43.96424883270264L89.9106412100741,45.90824883270264Q102.99343880920411,45.90824883270264,112.2446388092041,36.67834883270264Z" fill-rule="evenodd" fill="#EBECEC" fill-opacity="1"/></g><g transform="matrix(0.8993144631385803,0.43730244040489197,-0.43944117426872253,0.898271381855011,24.93819844131704,-46.745277838344236)"><path d="M119.56289239685059,40.108371250915525Q121.30982239685059,35.54642125091553,121.30982239685059,30.625571250915527L119.36582239685059,30.625571250915527Q119.36582239685059,35.18693125091553,117.74744239685059,39.413171250915525Q116.18350239685059,43.49727125091553,113.28616139685059,46.82217125091553L114.75178339685058,48.099371250915524Q117.87564239685058,44.51447125091553,119.56289239685059,40.108371250915525Z" fill-rule="evenodd" fill="#EBECEC" fill-opacity="1"/></g><g><path d="M76.09843809265136,31.932115666198733Q80.82124809265136,36.64071566619873,87.49999809265137,36.64071566619873L87.49999809265137,35.64071566619873Q81.23457809265136,35.64071566619873,76.80447809265137,31.223915666198728Q72.37499909265136,26.80784566619873,72.37499809265137,20.56281195213873L71.37499809265137,20.56281195213873Q71.37499709265137,27.22293566619873,76.09843809265136,31.932115666198733Z" fill-rule="evenodd" fill="#CACCCD" fill-opacity="1"/></g></g></g></g></svg>