<svg xmlns="http://www.w3.org/2000/svg" xmlns:xlink="http://www.w3.org/1999/xlink" fill="none" version="1.1" width="48" height="48" viewBox="0 0 48 48"><defs><clipPath id="master_svg0_206_49409"><rect x="16" y="16" width="16" height="16" rx="0"/></clipPath></defs><g><rect x="0" y="0" width="48" height="48" rx="24" fill="#FFFFFF" fill-opacity="1"/><rect x="0.5" y="0.5" width="47" height="47" rx="23.5" fill-opacity="0" stroke-opacity="1" stroke="#E5E5E5" fill="none" stroke-width="1"/><g clip-path="url(#master_svg0_206_49409)"><g><path d="M28.666666746139526,24.666663492279053C29.034866746139528,24.666663492279053,29.333366746139525,24.36819349227905,29.333366746139525,24.000000492279053C29.333366746139525,23.63181049227905,29.034866746139528,23.333333492279053,28.666666746139526,23.333333492279053C28.298476746139528,23.333333492279053,27.999996746139526,23.63181049227905,27.999996746139526,24.000000492279053C27.999996746139526,24.36819349227905,28.298476746139528,24.666663492279053,28.666666746139526,24.666663492279053ZM19.333333746139527,24.666663492279053C19.701526746139525,24.666663492279053,19.999996746139526,24.36819349227905,19.999996746139526,24.000000492279053C19.999996746139526,23.63181049227905,19.701526746139525,23.333333492279053,19.333333746139527,23.333333492279053C18.965143746139525,23.333333492279053,18.666666746139526,23.63181049227905,18.666666746139526,24.000000492279053C18.666666746139526,24.36819349227905,18.965143746139525,24.666663492279053,19.333333746139527,24.666663492279053ZM23.999996746139526,24.666663492279053C24.36818674613953,24.666663492279053,24.666666746139526,24.36819349227905,24.666666746139526,24.000000492279053C24.666666746139526,23.63181049227905,24.36818674613953,23.333333492279053,23.999996746139526,23.333333492279053C23.631806746139524,23.333333492279053,23.333336746139526,23.63181049227905,23.333336746139526,24.000000492279053C23.333336746139526,24.36819349227905,23.631806746139524,24.666663492279053,23.999996746139526,24.666663492279053Z" fill="#0A0A0A" fill-opacity="1"/><path d="M20.158286746139527,23.175042492279054Q19.816586746139528,22.833333492279053,19.333333746139527,22.833333492279053Q18.850084746139526,22.833333492279053,18.508375746139528,23.175042492279054Q18.166666746139526,23.51675049227905,18.166666746139526,23.999999492279052Q18.166666746139526,24.483253492279054,18.508375746139528,24.824953492279054Q18.850083746139525,25.166663492279053,19.333332746139526,25.166663492279053Q19.816586746139528,25.166663492279053,20.158286746139527,24.824953492279054Q20.499996746139526,24.483253492279054,20.499996746139526,24.000000492279053Q20.499996746139526,23.516751492279052,20.158286746139527,23.175042492279054ZM24.824956746139527,23.175042492279054Q24.48324674613953,22.833333492279053,23.999996746139526,22.833333492279053Q23.516746746139525,22.833333492279053,23.175046746139525,23.175042492279054Q22.833336746139526,23.51675049227905,22.833336746139526,23.999999492279052Q22.833336746139526,24.483253492279054,23.175046746139525,24.824953492279054Q23.516746746139525,25.166663492279053,23.999996746139526,25.166663492279053Q24.48324674613953,25.166663492279053,24.824956746139527,24.824953492279054Q25.166666746139526,24.483253492279054,25.166666746139526,24.000000492279053Q25.166666746139526,23.51675049227905,24.824956746139527,23.175042492279054ZM29.491666746139526,23.175042492279054Q29.149866746139526,22.833333492279053,28.666666746139526,22.833333492279053Q28.183416746139528,22.833333492279053,27.841706746139526,23.175042492279054Q27.499996746139526,23.516751492279052,27.499996746139526,23.999999492279052Q27.499996746139526,24.483253492279054,27.841706746139526,24.824953492279054Q28.183416746139528,25.166663492279053,28.666666746139526,25.166663492279053Q29.149866746139526,25.166663492279053,29.491666746139526,24.824953492279054Q29.833366746139525,24.483253492279054,29.833366746139525,24.000000492279053Q29.833366746139525,23.51675049227905,29.491666746139526,23.175042492279054ZM19.215481746139528,23.882148492279054Q19.264297746139526,23.833333492279053,19.333333746139527,23.833333492279053Q19.402368746139526,23.833333492279053,19.451184746139525,23.882148492279054Q19.499999746139526,23.930964492279053,19.499999746139526,24.000000492279053Q19.499999746139526,24.069035492279053,19.451184746139525,24.11785149227905Q19.402368746139526,24.166666492279052,19.333332746139526,24.166666492279052Q19.264297746139526,24.166666492279052,19.215482746139525,24.11785149227905Q19.166666746139526,24.069035492279053,19.166666746139526,23.999999492279052Q19.166666746139526,23.930964492279053,19.215481746139528,23.882148492279054ZM23.882146746139526,23.882148492279054Q23.930966746139525,23.833333492279053,23.999996746139526,23.833333492279053Q24.069036746139528,23.833333492279053,24.117846746139527,23.88214949227905Q24.166666746139526,23.930964492279053,24.166666746139526,24.000000492279053Q24.166666746139526,24.069035492279053,24.117846746139527,24.11785149227905Q24.069036746139528,24.166666492279052,23.999996746139526,24.166666492279052Q23.930966746139525,24.166666492279052,23.882146746139526,24.11785149227905Q23.833336746139526,24.069035492279053,23.833336746139526,23.999999492279052Q23.833336746139526,23.930964492279053,23.882146746139526,23.882148492279054ZM28.548816746139526,23.882148492279054Q28.59763674613953,23.833333492279053,28.666666746139526,23.833333492279053Q28.73566674613953,23.833333492279053,28.784566746139525,23.88214949227905Q28.833366746139525,23.930964492279053,28.833366746139525,24.000000492279053Q28.833366746139525,24.069035492279053,28.784566746139525,24.11785149227905Q28.73566674613953,24.166666492279052,28.666666746139526,24.166666492279052Q28.59763674613953,24.166666492279052,28.548816746139526,24.11785149227905Q28.499996746139526,24.069035492279053,28.499996746139526,23.999999492279052Q28.499996746139526,23.930964492279053,28.548816746139526,23.882148492279054Z" fill-rule="evenodd" fill="#0A0A0A" fill-opacity="1"/></g></g></g></svg>